<?xml version="1.0" encoding="UTF-8" standalone="no"?>
<svg
   xmlns="http://www.w3.org/2000/svg"
   width="84"
   height="50"
   viewBox="0 0 144.32753 86"
   version="1.1">
  <g
     style="fill:#231f20"
     transform="translate(-219.13599,0)">
    <path
       d="m 320.58,1.492 c -23,0 -41.758,18.758 -41.758,41.75 0,23 18.758,41.758 41.758,41.758 22.992,0 41.75,-18.758 41.75,-41.758 0,-22.992 -18.758,-41.75 -41.75,-41.75" />
    <path
       d="M 220.164,45.782 C 219.868,5.868 256.728,-7.11 281.438,5.64 c -27.594,-9.944 -52.43,8.946 -52.078,40.102 0.18,29.274 31.11,43.97 52.212,33.196 C 252.22,97.14 220.798,70.75 220.164,45.782" />
    <path
       d="m 248.532,69.368 c -2.046,0.6 -2.25,-0.86 -2.36,-1.306 4.422,-14.64 7.822,-28.164 6.736,-43.68 -6.578,0.564 -7.322,1.446 -8.384,-0.686 -0.382,-0.774 -0.976,-2.478 -1.336,-4.118 -0.242,-1.14 0.462,-0.976 0.82,-0.938 2.344,0.212 5.828,0.376 8.258,0.392 -0.234,-3.008 -0.016,-4.048 1.336,-4.07 1.728,-0.056 2.134,1.5 2.618,4.328 6.57,-0.274 11.132,-1.72 17.406,-3.516 4.86,-1.384 10.29,-4.508 10.882,-3.586 0.736,1.702 -7.374,5.296 -12.172,7.234 -6.906,2.804 -11.734,3.82 -15.42,4.508 0.202,4.196 0.834,8.14 0.35,22.922 -0.758,7.164 -0.93,13.36 -2.866,20.274 -3.056,1.476 -3.742,1.89 -5.868,2.242" />
  </g>
  <path
     style="fill:#ffffff"
     d="m 97.826013,67.672 c -2.656,-0.46 -10.766,-3.126 -15.39,-6.312 -1.626,2.108 -2.782,3.554 -4.36,5.78 2.024,-7.858 10.976,-26.828 0.242,-50.39 3.626,2.898 4.672,5.336 5.54,6.962 1.218,-0.258 4.78,-3.736 9.656,-6.564 6.296,-3.648 13.357997,-5.484 20.577997,-2.436 l 0,1.42 C 99.450013,16.438 94.420013,18.5 86.560013,30.954 c 2,8.686 1.57,16.75 -1.032,24.366 7.822,5.29 13.994,6.672 19.921997,7.524 9.744,-1.454 15.798,-6.532 18.814,-16.462 2.492,-17.178 -4.43,-26.272 -16.704,-23.952 -1.976,0.062 -5.258,1.406 -6.828,3.258 -1.725997,2.75 -4.209997,-0.648 -1.881997,-2.204 12.655997,-10.016 29.061997,-0.358 30.435997,12.884 0,21.75 -11.936,33.508 -31.459997,31.304" />
</svg>
